Coordinates
version=1
nRows=19
nColumns=27
inDegrees=yes

Units are S.I. units (second, meters, Newtons, ...)
If the header above contains a line with 'inDegrees', this indicates whether rotational values are in degrees (yes) or radians (no).

endheader
time	pelvis_rotation	pelvis_tilt	pelvis_list	pelvis_tx	pelvis_ty	pelvis_tz	hip_flexion_r	hip_adduction_r	hip_rotation_r	knee_angle_r	knee_rotation_r	knee_adduction_r	knee_angle_r_beta	ankle_angle_r	subtalar_angle_r	mtp_angle_r	hip_flexion_l	hip_adduction_l	hip_rotation_l	knee_angle_l	knee_rotation_l	knee_adduction_l	knee_angle_l_beta	ankle_angle_l	subtalar_angle_l	mtp_angle_l
      4.78500000	      3.72684243	    -26.02047635	      2.61658314	      0.00884335	      0.41769268	     -1.14242315	    129.02299443	    -47.85328472	     22.75871405	    112.83613767	     -9.92153989	      9.89393220	      1.96936212	     23.32530241	     15.60742340	      0.00000000	    126.33778476	    -44.54695139	     16.71280326	    106.80995180	     -9.92284924	     -9.90738139	      1.86418533	     17.08294369	     30.18942443	      0.00000000
      4.79000000	      3.79058809	    -25.90604164	      2.84326650	      0.00917510	      0.41629304	     -1.14245284	    129.41536520	    -47.69940837	     23.32600654	    113.04772793	     -9.92201512	      9.89414138	      1.97305506	     23.35515909	     15.56755831	      0.00000000	    126.23118982	    -44.60809631	     16.59259541	    106.97047402	     -9.92372228	     -9.90788117	      1.86698697	     17.11942174	     30.09667789	      0.00000000
      4.79500000	      3.82678151	    -25.84221877	      2.82290372	      0.00941891	      0.41504701	     -1.14251488	    129.53717037	    -47.69788291	     23.51241186	    113.20128203	     -9.92264141	      9.89446962	      1.97573509	     23.42474212	     15.51729020	      0.00000000	    126.39264311	    -44.51510533	     16.79030567	    107.13929056	     -9.92442734	     -9.90811411	      1.86993338	     17.17096758	     30.03673569	      0.00000000
      4.80000000	      3.75098686	    -25.79651956	      2.68121181	      0.00965130	      0.41378464	     -1.14260274	    129.53302953	    -47.65353729	     23.50715729	    113.34058644	     -9.92320463	      9.89449596	      1.97816641	     23.40413881	     15.38942378	      0.00000000	    126.72485351	    -44.47278662	     17.18239056	    107.32712427	     -9.92514458	     -9.90850323	      1.87321170	     17.24003746	     30.04534810	      0.00000000
      4.80500000	      3.81636430	    -25.72884066	      2.65345029	      0.00989638	      0.41258457	     -1.14266397	    129.66572240	    -47.70972172	     23.69997206	    113.48577424	     -9.92371525	      9.89467052	      1.98070041	     23.46510236	     15.42154644	      0.00000000	    126.89059506	    -44.34882888	     17.37100284	    107.49377233	     -9.92576260	     -9.90887730	      1.87612025	     17.26128447	     29.96021174	      0.00000000
      4.81000000	      3.84792932	    -25.68032471	      2.64917110	      0.01011736	      0.41142394	     -1.14275187	    129.81823628	    -47.70355567	     23.90241564	    113.62264530	     -9.92420948	      9.89505057	      1.98308927	     23.50876858	     15.39411435	      0.00000000	    127.05425098	    -44.29069568	     17.53361582	    107.65562324	     -9.92638013	     -9.90907860	      1.87894508	     17.30738291	     29.95621283	      0.00000000
      4.81500000	      3.83948049	    -25.64629272	      2.72342329	      0.01026807	      0.41033794	     -1.14276582	    130.05835715	    -47.58524385	     24.16746858	    113.77339256	     -9.92471618	      9.89517347	      1.98572030	     23.51195386	     15.28535952	      0.00000000	    127.14033046	    -44.33772674	     17.59534563	    107.77839241	     -9.92701654	     -9.90931086	      1.88108781	     17.37401492	     29.92464601	      0.00000000
      4.82000000	      3.84618667	    -25.65637676	      2.51792038	      0.01040969	      0.40930114	     -1.14287281	    130.04468842	    -47.71655393	     24.07087859	    113.87139219	     -9.92532621	      9.89549685	      1.98743072	     23.52681614	     15.23121044	      0.00000000	    127.54176022	    -44.16104786	     18.00750709	    107.94516341	     -9.92753272	     -9.90979813	      1.88399851	     17.40074960	     29.92482584	      0.00000000
      4.82500000	      3.79722908	    -25.61074941	      2.71494685	      0.01051141	      0.40825305	     -1.14287927	    130.37403611	    -47.45713725	     24.48237936	    114.01871433	     -9.92556095	      9.89564829	      1.99000197	     23.54193182	     15.22393708	      0.00000000	    127.53070940	    -44.36134875	     17.92705495	    108.04541905	     -9.92819336	     -9.90999849	      1.88574830	     17.39135759	     29.93595404	      0.00000000
      4.83000000	      3.86907352	    -25.58942094	      2.61709670	      0.01064176	      0.40726976	     -1.14299102	    130.47821406	    -47.59986209	     24.56204618	    114.11963978	     -9.92602366	      9.89591644	      1.99176346	     23.55250205	     15.22720906	      0.00000000	    127.77333835	    -44.19268345	     18.16710365	    108.18525438	     -9.92855809	     -9.91020396	      1.88818889	     17.41141699	     29.94011756	      0.00000000
      4.83500000	      3.85108572	    -25.60203322	      2.67336721	      0.01070039	      0.40639822	     -1.14300519	    130.71396752	    -47.50019015	     24.76682786	    114.23016430	     -9.92638677	      9.89613458	      1.99369247	     23.53886691	     15.17909210	      0.00000000	    127.91814504	    -44.25819641	     18.22801340	    108.28154582	     -9.92897843	     -9.91055454	      1.88986949	     17.40520995	     29.92170454	      0.00000000
      4.84000000	      3.83479992	    -25.58991737	      2.59149538	      0.01074012	      0.40551100	     -1.14309077	    130.78497625	    -47.52025987	     24.80511623	    114.31723333	     -9.92672519	      9.89606360	      1.99521211	     23.56346663	     15.18731261	      0.00000000	    128.17458946	    -44.21302028	     18.46299736	    108.40703436	     -9.92942359	     -9.91082898	      1.89205968	     17.40847250	     29.94480601	      0.00000000
      4.84500000	      3.88799799	    -25.58710500	      2.56560291	      0.01079193	      0.40470809	     -1.14317714	    130.94175881	    -47.58671804	     24.93679933	    114.39966280	     -9.92708478	      9.89633431	      1.99665078	     23.58278086	     15.20524815	      0.00000000	    128.35721917	    -44.13250301	     18.59157817	    108.51320931	     -9.92978181	     -9.91093636	      1.89391278	     17.40945524	     29.96400266	      0.00000000
      4.85000000	      3.89036463	    -25.63361639	      2.55671737	      0.01072921	      0.40394905	     -1.14324511	    131.13888636	    -47.55890056	     25.04614810	    114.48309814	     -9.92737541	      9.89669876	      1.99810700	     23.56875995	     15.15149747	      0.00000000	    128.57148112	    -44.11276622	     18.70349613	    108.60625298	     -9.93014048	     -9.91109134	      1.89553670	     17.40711845	     29.94307311	      0.00000000
      4.85500000	      3.81230934	    -25.69051617	      2.45522220	      0.01065628	      0.40325500	     -1.14331832	    131.20575953	    -47.51400004	     24.98513692	    114.53991703	     -9.92773730	      9.89677327	      1.99909868	     23.50556933	     15.06786615	      0.00000000	    128.89858679	    -44.11825899	     18.96737595	    108.70084366	     -9.93041692	     -9.91114111	      1.89718762	     17.38814619	     30.00444353	      0.00000000
      4.86000000	      3.88119975	    -25.68482715	      2.66089119	      0.01065905	      0.40257727	     -1.14336929	    131.59239727	    -47.41644723	     25.39939498	    114.64410247	     -9.92791647	      9.89694828	      2.00091706	     23.52704661	     15.05702342	      0.00000000	    128.84929155	    -44.20390227	     18.76756241	    108.76237285	     -9.93071201	     -9.91158966	      1.89826151	     17.31208672	     29.92458989	      0.00000000
      4.86500000	      3.89426721	    -25.73489993	      2.64215886	      0.01055880	      0.40195860	     -1.14348130	    131.76723337	    -47.41782062	     25.48673032	    114.69482527	     -9.92811101	      9.89711929	      2.00180234	     23.49003912	     15.05241522	      0.00000000	    129.05360642	    -44.16371178	     18.86100831	    108.85545857	     -9.93097760	     -9.91163914	      1.89988616	     17.36138100	     29.88370850	      0.00000000
      4.87000000	      3.89734845	    -25.77576017	      2.60675679	      0.01039021	      0.40141888	     -1.14355003	    131.88767832	    -47.41073313	     25.51699069	    114.74000079	     -9.92831551	      9.89708594	      2.00259080	     23.45910334	     14.99378562	      0.00000000	    129.26583580	    -44.11881452	     18.96854600	    108.92677482	     -9.93118803	     -9.91185098	      1.90113086	     17.30255743	     29.78924327	      0.00000000
      4.87500000	      3.90859721	    -25.82308631	      2.71445074	      0.01023501	      0.40088728	     -1.14365673	    132.17652625	    -47.30777123	     25.75066378	    114.79759227	     -9.92847328	      9.89703681	      2.00359596	     23.42489202	     14.96617738	      0.00000000	    129.33330114	    -44.16611195	     18.89441317	    108.99033711	     -9.93146955	     -9.91200518	      1.90224024	     17.27413280	     29.74615899	      0.00000000
